<svg width="83" height="78" viewBox="0 0 83 78" fill="none" xmlns="http://www.w3.org/2000/svg">
<g filter="url(#filter0_d_1_2245)">
<rect x="9" y="5" width="65" height="60" rx="8" fill="#616BE8"/>
</g>
<path d="M50.5818 34.2727C49.9682 34.2727 49.4773 34.7636 49.4773 35.3773C49.4773 35.9909 49.9682 36.4818 50.5818 36.4818C51.1955 36.4818 51.6864 35.9909 51.6864 35.3773C51.6864 34.7636 51.1955 34.2727 50.5818 34.2727Z" fill="white"/>
<path d="M32.4182 34.2727C31.8045 34.2727 31.3136 34.7636 31.3136 35.3773C31.3136 35.9909 31.8045 36.4818 32.4182 36.4818C33.0318 36.4818 33.5227 35.9909 33.5227 35.3773C33.6455 34.7636 33.1545 34.2727 32.4182 34.2727Z" fill="white"/>
<path d="M41.5 22C34.0136 22 28 28.0136 28 35.5C28 42.9864 34.0136 49 41.5 49C48.9864 49 55 42.9864 55 35.5C55 28.0136 48.9864 22 41.5 22ZM41.5 47.2818C34.9955 47.2818 29.5955 42.0045 29.5955 35.3773C29.5955 28.8727 34.8727 23.4727 41.5 23.4727C48.1273 23.4727 53.4045 28.75 53.4045 35.3773C53.4045 42.0045 48.1273 47.2818 41.5 47.2818Z" fill="white"/>
<path d="M47.0227 30.3455C46.7773 29.9773 46.5318 29.7318 46.1636 29.4864C45.6727 29.1182 44.9364 28.8727 44.0773 28.75C43.8318 28.75 43.7091 28.75 43.4636 28.75C43.2182 28.75 43.0955 28.75 42.9727 28.75H37.9409C37.5727 28.75 37.2045 28.9955 37.2045 29.3636V34.7636H35.6091C35.4864 34.7636 35.3636 34.8864 35.3636 35.0091V36.3591C35.3636 36.4818 35.4864 36.6045 35.6091 36.6045H37.2045V38.0773H35.6091C35.4864 38.0773 35.3636 38.2 35.3636 38.3227V39.6727C35.3636 39.7955 35.4864 39.9182 35.6091 39.9182H37.2045V41.8818C37.2045 42.1273 37.3273 42.25 37.5727 42.25H39.2909C39.5364 42.25 39.6591 42.1273 39.6591 41.8818V39.9182H41.0091C41.1318 39.9182 41.2545 39.7955 41.2545 39.6727V38.3227C41.2545 38.2 41.1318 38.0773 41.0091 38.0773H39.5364V36.6045H42.9727C43.0955 36.6045 43.3409 36.6045 43.4636 36.6045C43.7091 36.6045 43.8318 36.6045 44.0773 36.6045C44.9364 36.4818 45.55 36.2364 46.1636 35.8682C46.5318 35.6227 46.7773 35.3773 47.0227 35.0091C47.0227 35.0091 47.1455 34.7636 47.2682 34.5182C47.7591 33.4136 47.7591 31.9409 47.2682 30.8364C47.2682 30.5909 47.1455 30.3455 47.0227 30.3455ZM45.1818 33.4136C45.0591 33.6591 44.9364 33.9045 44.6909 34.15C44.4455 34.3955 44.2 34.5182 43.7091 34.6409C43.5864 34.6409 43.4636 34.6409 43.2182 34.7636C43.0955 34.7636 42.85 34.7636 42.7273 34.7636H39.4136C39.4136 34.7636 39.2909 34.7636 39.2909 34.6409V30.7136C39.2909 30.7136 39.2909 30.5909 39.4136 30.5909H42.7273C42.85 30.5909 42.9727 30.5909 43.2182 30.5909C43.3409 30.5909 43.5864 30.5909 43.7091 30.7136C44.0773 30.8364 44.4455 30.9591 44.6909 31.2045C44.9364 31.45 45.0591 31.6955 45.1818 31.9409C45.3045 32.1864 45.3045 32.4318 45.3045 32.6773C45.3045 32.9227 45.3045 33.1682 45.1818 33.4136Z" fill="white"/>
<defs>
<filter id="filter0_d_1_2245" x="0" y="0" width="83" height="78" filterUnits="userSpaceOnUse" color-interpolation-filters="sRGB">
<feFlood flood-opacity="0" result="BackgroundImageFix"/>
<feColorMatrix in="SourceAlpha" type="matrix" values="0 0 0 0 0 0 0 0 0 0 0 0 0 0 0 0 0 0 127 0" result="hardAlpha"/>
<feOffset dy="4"/>
<feGaussianBlur stdDeviation="4.5"/>
<feComposite in2="hardAlpha" operator="out"/>
<feColorMatrix type="matrix" values="0 0 0 0 0 0 0 0 0 0 0 0 0 0 0 0 0 0 0.05 0"/>
<feBlend mode="normal" in2="BackgroundImageFix" result="effect1_dropShadow_1_2245"/>
<feBlend mode="normal" in="SourceGraphic" in2="effect1_dropShadow_1_2245" result="shape"/>
</filter>
</defs>
</svg>
