<svg width="58" height="58" viewBox="0 0 58 58" fill="none" xmlns="http://www.w3.org/2000/svg">
<g filter="url(#filter0_d_251_8)">
<rect x="9" y="5" width="40" height="40" rx="8" fill="#616BE8"/>
</g>
<path d="M16 30L19.5996 20H21.0148L24.6144 30H23.504L20.0858 20.5694H20.5068L17.1104 30H16ZM17.6039 27.5764V26.6181H23.0033V27.5764H17.6039Z" fill="white"/>
<path d="M25.9249 30V20H29.9599C30.0615 20 30.1752 20.0046 30.301 20.0139C30.4317 20.0185 30.5623 20.0324 30.6929 20.0556C31.2396 20.1343 31.7017 20.3171 32.0791 20.6042C32.4613 20.8866 32.7492 21.2431 32.9427 21.6736C33.1411 22.1042 33.2402 22.581 33.2402 23.1042C33.2402 23.6227 33.1411 24.0972 32.9427 24.5278C32.7443 24.9583 32.454 25.3171 32.0718 25.6042C31.6944 25.8866 31.2348 26.0671 30.6929 26.1458C30.5623 26.1644 30.4317 26.1782 30.301 26.1875C30.1752 26.1968 30.0615 26.2014 29.9599 26.2014H26.9917V30H25.9249ZM26.9917 25.2292H29.9309C30.018 25.2292 30.1196 25.2245 30.2357 25.2153C30.3518 25.206 30.4655 25.1898 30.5768 25.1667C30.9348 25.0926 31.2275 24.9514 31.4549 24.7431C31.6872 24.5347 31.8589 24.287 31.9702 24C32.0863 23.713 32.1444 23.4144 32.1444 23.1042C32.1444 22.794 32.0863 22.4954 31.9702 22.2083C31.8589 21.9167 31.6872 21.6667 31.4549 21.4583C31.2275 21.25 30.9348 21.1088 30.5768 21.0347C30.4655 21.0116 30.3518 20.9977 30.2357 20.9931C30.1196 20.9838 30.018 20.9792 29.9309 20.9792H26.9917V25.2292Z" fill="white"/>
<path d="M34.6847 30V20H38.7197C38.8213 20 38.935 20.0046 39.0608 20.0139C39.1914 20.0185 39.3221 20.0324 39.4527 20.0556C39.9994 20.1343 40.4615 20.3171 40.8388 20.6042C41.2211 20.8866 41.5089 21.2431 41.7024 21.6736C41.9008 22.1042 42 22.581 42 23.1042C42 23.6227 41.9008 24.0972 41.7024 24.5278C41.5041 24.9583 41.2138 25.3171 40.8316 25.6042C40.4542 25.8866 39.9946 26.0671 39.4527 26.1458C39.3221 26.1644 39.1914 26.1782 39.0608 26.1875C38.935 26.1968 38.8213 26.2014 38.7197 26.2014H35.7515V30H34.6847ZM35.7515 25.2292H38.6907C38.7778 25.2292 38.8794 25.2245 38.9955 25.2153C39.1116 25.206 39.2253 25.1898 39.3366 25.1667C39.6946 25.0926 39.9873 24.9514 40.2147 24.7431C40.4469 24.5347 40.6187 24.287 40.73 24C40.8461 23.713 40.9042 23.4144 40.9042 23.1042C40.9042 22.794 40.8461 22.4954 40.73 22.2083C40.6187 21.9167 40.4469 21.6667 40.2147 21.4583C39.9873 21.25 39.6946 21.1088 39.3366 21.0347C39.2253 21.0116 39.1116 20.9977 38.9955 20.9931C38.8794 20.9838 38.7778 20.9792 38.6907 20.9792H35.7515V25.2292Z" fill="white"/>
<defs>
<filter id="filter0_d_251_8" x="0" y="0" width="58" height="58" filterUnits="userSpaceOnUse" color-interpolation-filters="sRGB">
<feFlood flood-opacity="0" result="BackgroundImageFix"/>
<feColorMatrix in="SourceAlpha" type="matrix" values="0 0 0 0 0 0 0 0 0 0 0 0 0 0 0 0 0 0 127 0" result="hardAlpha"/>
<feOffset dy="4"/>
<feGaussianBlur stdDeviation="4.5"/>
<feComposite in2="hardAlpha" operator="out"/>
<feColorMatrix type="matrix" values="0 0 0 0 0 0 0 0 0 0 0 0 0 0 0 0 0 0 0.05 0"/>
<feBlend mode="normal" in2="BackgroundImageFix" result="effect1_dropShadow_251_8"/>
<feBlend mode="normal" in="SourceGraphic" in2="effect1_dropShadow_251_8" result="shape"/>
</filter>
</defs>
</svg>
