<svg width="83" height="78" viewBox="0 0 83 78" fill="none" xmlns="http://www.w3.org/2000/svg">
<g filter="url(#filter0_d_1_2267)">
<rect x="9" y="5" width="65" height="60" rx="8" fill="#F2B705"/>
</g>
<path fill-rule="evenodd" clip-rule="evenodd" d="M38.417 23.6376C38.6379 24.1438 38.4067 24.7332 37.9005 24.9541C36.1788 25.7054 34.6673 26.8671 33.4983 28.3375C32.3293 29.8079 31.5382 31.5422 31.1944 33.389C30.8505 35.2357 30.9642 37.1385 31.5256 38.9312C32.087 40.7238 33.079 42.3516 34.4148 43.6723C35.7507 44.993 37.3897 45.9663 39.1886 46.5072C40.9876 47.0481 42.8916 47.1401 44.7343 46.7751C46.577 46.4102 48.3022 45.5994 49.7591 44.4136C51.2161 43.2279 52.3604 41.7033 53.092 39.9731C53.3071 39.4645 53.8938 39.2265 54.4025 39.4416C54.9111 39.6567 55.1491 40.2434 54.934 40.7521C54.0752 42.7831 52.7319 44.5729 51.0216 45.9648C49.3113 47.3568 47.286 48.3086 45.1228 48.737C42.9597 49.1654 40.7245 49.0575 38.6127 48.4225C36.501 47.7875 34.5769 46.6449 33.0087 45.0945C31.4406 43.5442 30.276 41.6333 29.617 39.5289C28.958 37.4245 28.8245 35.1907 29.2282 33.0228C29.6319 30.8549 30.5605 28.8189 31.9328 27.0928C33.3051 25.3667 35.0794 24.003 37.1005 23.1211C37.6067 22.9002 38.1961 23.1315 38.417 23.6376Z" fill="white"/>
<path fill-rule="evenodd" clip-rule="evenodd" d="M41.7939 22.2929C41.9814 22.1054 42.2358 22 42.501 22C44.2738 22 46.0293 22.3492 47.6672 23.0276C49.3051 23.7061 50.7933 24.7005 52.0469 25.9541C53.3005 27.2076 54.2949 28.6959 54.9734 30.3338C55.6518 31.9717 56.001 33.7272 56.001 35.5C56.001 36.0523 55.5533 36.5 55.001 36.5H42.501C41.9487 36.5 41.501 36.0523 41.501 35.5V23C41.501 22.7348 41.6063 22.4804 41.7939 22.2929ZM43.501 24.0436V34.5H53.9574C53.8555 33.3325 53.5756 32.1855 53.1256 31.0991C52.5477 29.7039 51.7006 28.4361 50.6327 27.3683C49.5648 26.3004 48.2971 25.4533 46.9018 24.8754C45.8155 24.4254 44.6685 24.1455 43.501 24.0436Z" fill="white"/>
<defs>
<filter id="filter0_d_1_2267" x="0" y="0" width="83" height="78" filterUnits="userSpaceOnUse" color-interpolation-filters="sRGB">
<feFlood flood-opacity="0" result="BackgroundImageFix"/>
<feColorMatrix in="SourceAlpha" type="matrix" values="0 0 0 0 0 0 0 0 0 0 0 0 0 0 0 0 0 0 127 0" result="hardAlpha"/>
<feOffset dy="4"/>
<feGaussianBlur stdDeviation="4.5"/>
<feComposite in2="hardAlpha" operator="out"/>
<feColorMatrix type="matrix" values="0 0 0 0 0 0 0 0 0 0 0 0 0 0 0 0 0 0 0.05 0"/>
<feBlend mode="normal" in2="BackgroundImageFix" result="effect1_dropShadow_1_2267"/>
<feBlend mode="normal" in="SourceGraphic" in2="effect1_dropShadow_1_2267" result="shape"/>
</filter>
</defs>
</svg>
