<svg width="83" height="78" viewBox="0 0 83 78" fill="none" xmlns="http://www.w3.org/2000/svg">
<g filter="url(#filter0_d_1_2251)">
<rect x="9" y="5" width="65" height="60" rx="8" fill="#616BE8"/>
</g>
<path d="M41.5031 48C40.997 48 39.9594 47.8868 39.1357 47.0652C38.4624 46.3942 38.2894 45.6058 38.2455 45.1971L38.2299 40.3078C38.2001 39.8991 38.1094 39.4517 37.9634 39.0237C37.6827 38.2021 37.2631 37.4634 34.109 34.7834L33.3562 34.1455C32.3313 33.2784 32.1257 33.1044 31.1575 32.1779C29.8505 30.9269 29.4777 30.3222 29.2452 29.6456C28.5818 27.7111 29.4635 25.9921 29.567 25.8029C29.601 25.7394 30.4104 24.2869 32.3483 23.4667C33.1237 23.1381 33.8991 23.0428 33.9318 23.04C34.1671 23.0124 34.401 23 34.6391 23H48.258C48.499 23 48.7371 23.0138 48.971 23.04C48.9724 23.04 49.3183 23.0801 49.66 23.1602C52.5391 23.8257 53.5272 25.7781 53.5669 25.8609C53.9524 26.63 54.2799 27.9127 53.6307 29.6304C53.4152 30.202 53.126 30.7778 51.7226 32.1517C50.6409 33.2135 50.5148 33.3225 49.3084 34.3664L48.7825 34.822C48.7414 34.8566 46.3258 36.8269 45.4781 38.5211C45.3406 38.7959 45.2229 39.0624 45.2215 39.0679C45.0471 39.5111 44.9422 39.9737 44.945 40.3133C44.9536 41.5601 44.9564 42.5446 44.9578 43.5222L44.9606 45.1377C44.8997 45.6417 44.7012 46.4315 44.0066 47.0942C43.1291 47.9296 42.039 47.9945 41.6775 47.9931C41.6293 47.9972 41.5712 48 41.5031 48ZM34.6377 24.3808C34.4563 24.3808 34.2748 24.3918 34.099 24.4111C34.099 24.4111 33.4937 24.4885 32.9139 24.7329C31.4495 25.3528 30.823 26.4422 30.8173 26.4533C30.7904 26.503 30.1057 27.794 30.5905 29.2079C30.7223 29.5931 30.9406 30.0336 32.1527 31.1934C33.0911 32.0923 33.2896 32.2607 34.2862 33.1044L35.0403 33.7437C37.5991 35.9184 38.5389 36.9498 39.0238 37.9053C39.1967 38.2463 39.3087 38.5915 39.3087 38.5915C39.5639 39.3261 39.6347 39.975 39.6517 40.4293C39.6546 41.9951 39.6574 43.5609 39.6603 45.1266C39.6815 45.2868 39.7779 45.7314 40.1507 46.1015C40.7008 46.6496 41.4634 46.6261 41.6109 46.6165L41.6775 46.6151C41.8547 46.6137 42.504 46.5944 43.0143 46.1097C43.4041 45.7369 43.5161 45.2868 43.5473 45.0521L43.5388 43.5263C43.5374 42.5515 43.5345 41.5698 43.526 40.3271C43.5218 39.8135 43.6579 39.1825 43.9074 38.5501C43.9173 38.5252 44.0491 38.2284 44.2036 37.9191C45.1832 35.957 47.7491 33.8666 47.8582 33.7782L48.3657 33.3377C49.5423 32.3201 49.6656 32.2138 50.7161 31.1824C52.0132 29.9079 52.1691 29.4965 52.2953 29.1651C52.7744 27.8962 52.5561 26.9973 52.2882 26.4643C52.2584 26.4049 51.5213 25.0131 49.3311 24.5064C49.0717 24.447 48.8122 24.4167 48.8009 24.4153C48.6237 24.3946 48.4408 24.3849 48.2551 24.3849H34.6377V24.3808Z" fill="white"/>
<defs>
<filter id="filter0_d_1_2251" x="0" y="0" width="83" height="78" filterUnits="userSpaceOnUse" color-interpolation-filters="sRGB">
<feFlood flood-opacity="0" result="BackgroundImageFix"/>
<feColorMatrix in="SourceAlpha" type="matrix" values="0 0 0 0 0 0 0 0 0 0 0 0 0 0 0 0 0 0 127 0" result="hardAlpha"/>
<feOffset dy="4"/>
<feGaussianBlur stdDeviation="4.5"/>
<feComposite in2="hardAlpha" operator="out"/>
<feColorMatrix type="matrix" values="0 0 0 0 0 0 0 0 0 0 0 0 0 0 0 0 0 0 0.05 0"/>
<feBlend mode="normal" in2="BackgroundImageFix" result="effect1_dropShadow_1_2251"/>
<feBlend mode="normal" in="SourceGraphic" in2="effect1_dropShadow_1_2251" result="shape"/>
</filter>
</defs>
</svg>
