<svg width="58" height="58" viewBox="0 0 58 58" fill="none" xmlns="http://www.w3.org/2000/svg">
<g filter="url(#filter0_d_251_4)">
<rect x="9" y="5.00012" width="40" height="40" rx="8" fill="#616BE8"/>
</g>
<path fill-rule="evenodd" clip-rule="evenodd" d="M20.4292 21.6016C20.4292 17.4189 24.2846 14 29.0012 14C33.7166 14 37.5732 17.42 37.5732 21.6016V23.1958C38.9783 23.6017 40 24.7765 40 26.154V28.3972C40 28.3971 40 28.3972 40 28.3972C40.0012 32.5799 36.1445 36 31.428 36H26.5732C21.8566 36 18 32.58 18 28.3973V26.154C18 24.7757 19.0229 23.6004 20.4292 23.1952V21.6016ZM36.2675 23.0422V21.6016C36.2675 18.0595 32.9955 15.1579 29.0012 15.1579C25.0057 15.1579 21.7349 18.0584 21.7349 21.6016V23.0422H36.2675ZM21.5067 24.2022C20.298 24.2022 19.3057 25.0822 19.3057 26.154V28.3973C19.3057 31.9405 22.5777 34.8421 26.5732 34.8421H31.428C35.4235 34.8421 38.6954 31.9405 38.6943 28.3975V26.154C38.6943 25.0822 37.702 24.2022 36.4933 24.2022H21.5067ZM26.3114 28.1852C26.3114 26.921 27.5974 26.0205 29 26.0205C30.4029 26.0205 31.6886 26.9223 31.6886 28.1852C31.6886 28.8636 31.3048 29.4429 30.7449 29.8275V31.2505C30.7449 32.1058 29.9087 32.7215 28.9988 32.7215C28.0884 32.7215 27.2528 32.1044 27.2528 31.2505V29.8269C26.6948 29.4423 26.3114 28.8632 26.3114 28.1852ZM29 27.1784C28.154 27.1784 27.6172 27.6971 27.6172 28.1852C27.6172 28.5017 27.8294 28.8158 28.2261 29.0141L28.5585 29.1802V31.2505C28.5585 31.3767 28.706 31.5636 28.9988 31.5636C29.2922 31.5636 29.4392 31.3774 29.4392 31.2505V29.1795L29.7725 29.0136C30.1711 28.8152 30.3828 28.5014 30.3828 28.1852C30.3828 27.698 29.8457 27.1784 29 27.1784Z" fill="white"/>
<defs>
<filter id="filter0_d_251_4" x="0" y="0.00012207" width="58" height="58" filterUnits="userSpaceOnUse" color-interpolation-filters="sRGB">
<feFlood flood-opacity="0" result="BackgroundImageFix"/>
<feColorMatrix in="SourceAlpha" type="matrix" values="0 0 0 0 0 0 0 0 0 0 0 0 0 0 0 0 0 0 127 0" result="hardAlpha"/>
<feOffset dy="4"/>
<feGaussianBlur stdDeviation="4.5"/>
<feComposite in2="hardAlpha" operator="out"/>
<feColorMatrix type="matrix" values="0 0 0 0 0 0 0 0 0 0 0 0 0 0 0 0 0 0 0.05 0"/>
<feBlend mode="normal" in2="BackgroundImageFix" result="effect1_dropShadow_251_4"/>
<feBlend mode="normal" in="SourceGraphic" in2="effect1_dropShadow_251_4" result="shape"/>
</filter>
</defs>
</svg>
