<svg width="83" height="78" viewBox="0 0 83 78" fill="none" xmlns="http://www.w3.org/2000/svg">
<g filter="url(#filter0_d_1_2239)">
<rect x="9" y="5" width="65" height="60" rx="8" fill="#616BE8"/>
</g>
<path d="M41.5001 39.7511C38.9993 39.7511 36.9639 37.8436 36.9639 35.5002C36.9639 33.1567 38.9993 31.2493 41.5001 31.2493C44.0009 31.2493 46.0364 33.1567 46.0364 35.5002C46.0364 37.8436 44.0009 39.7511 41.5001 39.7511ZM41.5001 32.6205C39.8056 32.6205 38.4272 33.9122 38.4272 35.5002C38.4272 37.0881 39.8056 38.3798 41.5001 38.3798C43.1946 38.3798 44.5731 37.0881 44.5731 35.5002C44.5731 33.9122 43.1946 32.6205 41.5001 32.6205Z" fill="white"/>
<path d="M42.1337 49H40.865C38.8237 49 37.1629 47.4436 37.1629 45.5321V44.8081C37.1629 44.3172 36.8922 43.8756 36.44 43.6288C35.9849 43.3792 35.442 43.3779 34.9869 43.6192L34.3138 43.9757C33.4548 44.431 32.4554 44.5434 31.5028 44.2952C30.5472 44.0457 29.7541 43.467 29.2698 42.6634L28.6464 41.6268C27.6411 39.9621 28.2703 37.8421 30.0468 36.9001C30.5209 36.6491 30.7975 36.1952 30.7872 35.6865C30.777 35.1764 30.4829 34.7321 29.9985 34.4976C28.1869 33.62 27.4757 31.522 28.4137 29.823L28.9961 28.7671C29.4498 27.9471 30.218 27.3397 31.1633 27.0586C32.1101 26.7802 33.1124 26.857 33.986 27.2807L35.0367 27.7908C35.4903 28.0116 36.0244 27.9951 36.4634 27.7442C36.9024 27.4946 37.1643 27.0586 37.1643 26.5772V25.4693C37.1643 23.5564 38.8252 22 40.8665 22H42.1352C44.178 22 45.8374 23.5564 45.8374 25.4693V26.1947C45.8374 26.6856 46.1081 27.1271 46.5603 27.3739C47.011 27.6194 47.5538 27.6263 48.0119 27.3822L48.685 27.0256C49.541 26.5718 50.5419 26.4579 51.496 26.7061C52.4515 26.9543 53.2447 27.5344 53.729 28.3393L54.3539 29.3732C55.3592 31.0379 54.7314 33.1579 52.9535 34.0999C52.4808 34.3509 52.2028 34.8048 52.213 35.3135C52.2233 35.8222 52.5174 36.2665 53.0003 36.501C53.8768 36.9261 54.5236 37.6474 54.8236 38.5318C55.1236 39.4163 55.0387 40.3556 54.5865 41.177L54.0041 42.2329C53.5505 43.0542 52.7808 43.6603 51.837 43.9414C50.8946 44.2212 49.8922 44.1444 49.0142 43.7193L47.965 43.2106C47.5085 42.9912 46.9744 43.0062 46.5368 43.2558C46.0979 43.5054 45.8359 43.9414 45.8359 44.4228V45.5321C45.8359 47.445 44.1765 49 42.1337 49ZM35.7069 42.0669C36.2132 42.0669 36.7195 42.1931 37.179 42.4427C38.0862 42.9391 38.6276 43.8235 38.6276 44.8081V45.5321C38.6276 46.6881 39.6315 47.6287 40.8665 47.6287H42.1352C43.3702 47.6287 44.3741 46.6867 44.3741 45.5321V44.4228C44.3741 43.4601 44.8979 42.5853 45.7759 42.0848C46.6554 41.5856 47.7251 41.55 48.6367 41.9929L49.6874 42.5016C50.2171 42.7594 50.8229 42.806 51.3936 42.636C51.9657 42.466 52.4311 42.0985 52.7047 41.6048L53.2871 40.5476C53.5622 40.0526 53.612 39.4849 53.4305 38.9487C53.2491 38.4125 52.8569 37.9765 52.3301 37.7201C51.3614 37.2497 50.7717 36.3598 50.7512 35.3396C50.7307 34.3193 51.2853 33.4088 52.235 32.907C53.3091 32.3379 53.6895 31.0544 53.0808 30.0493L52.4545 29.014C52.1633 28.5285 51.6833 28.1789 51.1038 28.028C50.5288 27.8772 49.9215 27.9444 49.4049 28.22L48.7318 28.5765C47.8172 29.0606 46.7285 29.0551 45.8227 28.5587C44.9155 28.0623 44.3741 27.1792 44.3741 26.1947V25.4693C44.3741 24.3119 43.3688 23.3713 42.1352 23.3713H40.865C39.63 23.3713 38.6262 24.3119 38.6262 25.4693V26.5772C38.6262 27.5412 38.1023 28.4147 37.2229 28.9166C36.3449 29.4171 35.2752 29.4514 34.3621 29.0085L33.3129 28.4984C32.7846 28.2433 32.1788 28.1953 31.6067 28.3654C31.036 28.5368 30.5692 28.9029 30.2956 29.3979L29.7132 30.4538C29.1454 31.4809 29.5771 32.7493 30.6731 33.2813C31.6403 33.7503 32.23 34.6402 32.2505 35.6618C32.271 36.682 31.7164 37.5912 30.7682 38.0944C29.6941 38.6635 29.3137 39.947 29.9209 40.9521L30.5458 41.9874C30.8384 42.4728 31.3184 42.8225 31.8964 42.9733C32.473 43.1228 33.0788 43.0556 33.5968 42.78L34.2699 42.4235C34.7206 42.1862 35.2137 42.0669 35.7069 42.0669Z" fill="white"/>
<defs>
<filter id="filter0_d_1_2239" x="0" y="0" width="83" height="78" filterUnits="userSpaceOnUse" color-interpolation-filters="sRGB">
<feFlood flood-opacity="0" result="BackgroundImageFix"/>
<feColorMatrix in="SourceAlpha" type="matrix" values="0 0 0 0 0 0 0 0 0 0 0 0 0 0 0 0 0 0 127 0" result="hardAlpha"/>
<feOffset dy="4"/>
<feGaussianBlur stdDeviation="4.5"/>
<feComposite in2="hardAlpha" operator="out"/>
<feColorMatrix type="matrix" values="0 0 0 0 0 0 0 0 0 0 0 0 0 0 0 0 0 0 0.05 0"/>
<feBlend mode="normal" in2="BackgroundImageFix" result="effect1_dropShadow_1_2239"/>
<feBlend mode="normal" in="SourceGraphic" in2="effect1_dropShadow_1_2239" result="shape"/>
</filter>
</defs>
</svg>
