<svg width="58" height="58" viewBox="0 0 58 58" fill="none" xmlns="http://www.w3.org/2000/svg">
<g filter="url(#filter0_d_251_6)">
<rect x="9" y="5" width="40" height="40" rx="8" fill="#616BE8"/>
</g>
<path d="M29.0001 28.7787C26.7772 28.7787 24.9679 27.0832 24.9679 25.0001C24.9679 22.9171 26.7772 21.2216 29.0001 21.2216C31.223 21.2216 33.0323 22.9171 33.0323 25.0001C33.0323 27.0832 31.223 28.7787 29.0001 28.7787ZM29.0001 22.4405C27.4939 22.4405 26.2686 23.5887 26.2686 25.0001C26.2686 26.4116 27.4939 27.5598 29.0001 27.5598C30.5063 27.5598 31.7316 26.4116 31.7316 25.0001C31.7316 23.5887 30.5063 22.4405 29.0001 22.4405Z" fill="white"/>
<path d="M29.5633 37H28.4356C26.6211 37 25.1448 35.6166 25.1448 33.9174V33.2738C25.1448 32.8375 24.9041 32.445 24.5022 32.2256C24.0977 32.0038 23.6151 32.0025 23.2106 32.2171L22.6123 32.534C21.8487 32.9387 20.9604 33.0386 20.1136 32.818C19.2642 32.5961 18.5592 32.0818 18.1287 31.3675L17.5746 30.446C16.681 28.9663 17.2403 27.0819 18.8194 26.2445C19.2408 26.0214 19.4866 25.618 19.4775 25.1658C19.4684 24.7123 19.207 24.3174 18.7764 24.109C17.1661 23.3289 16.534 21.464 17.3678 19.9538L17.8854 19.0152C18.2887 18.2863 18.9716 17.7464 19.8118 17.4965C20.6534 17.2491 21.5444 17.3173 22.3209 17.694L23.2548 18.1474C23.6581 18.3436 24.1328 18.329 24.523 18.1059C24.9132 17.8841 25.1461 17.4965 25.1461 17.0687V16.0838C25.1461 14.3834 26.6224 13 28.4369 13H29.5646C31.3804 13 32.8555 14.3834 32.8555 16.0838V16.7286C32.8555 17.165 33.0961 17.5574 33.498 17.7768C33.8986 17.995 34.3812 18.0011 34.7883 17.7842L35.3867 17.4672C36.1476 17.0638 37.0373 16.9626 37.8853 17.1832C38.7347 17.4039 39.4397 17.9195 39.8702 18.6349L40.4256 19.554C41.3192 21.0337 40.7612 22.9181 39.1809 23.7555C38.7607 23.9786 38.5136 24.382 38.5227 24.8342C38.5318 25.2864 38.7932 25.6814 39.2225 25.8898C40.0016 26.2676 40.5765 26.9088 40.8432 27.695C41.1098 28.4812 41.0344 29.3161 40.6325 30.0462L40.1148 30.9848C39.7116 31.7149 39.0274 32.2536 38.1884 32.5035C37.3507 32.7522 36.4598 32.6839 35.6793 32.306L34.7467 31.8538C34.3409 31.6588 33.8661 31.6722 33.4772 31.8941C33.087 32.1159 32.8542 32.5035 32.8542 32.9313V33.9174C32.8542 35.6178 31.3791 37 29.5633 37ZM23.8506 30.8373C24.3006 30.8373 24.7507 30.9494 25.1591 31.1713C25.9655 31.6125 26.4468 32.3987 26.4468 33.2738V33.9174C26.4468 34.9449 27.3391 35.7811 28.4369 35.7811H29.5646C30.6624 35.7811 31.5547 34.9437 31.5547 33.9174V32.9313C31.5547 32.0757 32.0204 31.298 32.8008 30.8531C33.5826 30.4094 34.5334 30.3778 35.3437 30.7715L36.2776 31.2237C36.7485 31.4528 37.287 31.4943 37.7943 31.3431C38.3029 31.192 38.7165 30.8653 38.9597 30.4265L39.4774 29.4867C39.722 29.0467 39.7662 28.5421 39.6049 28.0655C39.4436 27.5889 39.095 27.2013 38.6268 26.9734C37.7657 26.5553 37.2415 25.7642 37.2233 24.8574C37.2051 23.9505 37.698 23.1412 38.5422 22.6951C39.4969 22.1892 39.8351 21.0483 39.294 20.1549L38.7373 19.2346C38.4785 18.8031 38.0518 18.4923 37.5367 18.3583C37.0256 18.2242 36.4858 18.2839 36.0266 18.5289L35.4283 18.8458C34.6153 19.2761 33.6476 19.2712 32.8424 18.83C32.036 18.3887 31.5547 17.6038 31.5547 16.7286V16.0838C31.5547 15.0551 30.6611 14.2189 29.5646 14.2189H28.4356C27.3378 14.2189 26.4455 15.0551 26.4455 16.0838V17.0687C26.4455 17.9255 25.9798 18.702 25.1981 19.1481C24.4177 19.593 23.4668 19.6235 22.6552 19.2298L21.7226 18.7763C21.253 18.5496 20.7145 18.507 20.2059 18.6581C19.6987 18.8105 19.2837 19.1359 19.0405 19.5759L18.5228 20.5145C18.0181 21.4274 18.4018 22.5549 19.3761 23.0278C20.2359 23.4447 20.76 24.2358 20.7783 25.1438C20.7965 26.0507 20.3035 26.8588 19.4606 27.3061C18.5059 27.812 18.1677 28.9529 18.7075 29.8463L19.2629 30.7666C19.5231 31.1981 19.9497 31.5089 20.4635 31.643C20.976 31.7758 21.5145 31.7161 21.9749 31.4711L22.5732 31.1542C22.9739 30.9433 23.4122 30.8373 23.8506 30.8373Z" fill="white"/>
<defs>
<filter id="filter0_d_251_6" x="0" y="0" width="58" height="58" filterUnits="userSpaceOnUse" color-interpolation-filters="sRGB">
<feFlood flood-opacity="0" result="BackgroundImageFix"/>
<feColorMatrix in="SourceAlpha" type="matrix" values="0 0 0 0 0 0 0 0 0 0 0 0 0 0 0 0 0 0 127 0" result="hardAlpha"/>
<feOffset dy="4"/>
<feGaussianBlur stdDeviation="4.5"/>
<feComposite in2="hardAlpha" operator="out"/>
<feColorMatrix type="matrix" values="0 0 0 0 0 0 0 0 0 0 0 0 0 0 0 0 0 0 0.05 0"/>
<feBlend mode="normal" in2="BackgroundImageFix" result="effect1_dropShadow_251_6"/>
<feBlend mode="normal" in="SourceGraphic" in2="effect1_dropShadow_251_6" result="shape"/>
</filter>
</defs>
</svg>
