<svg width="58" height="58" viewBox="0 0 58 58" fill="none" xmlns="http://www.w3.org/2000/svg">
<g filter="url(#filter0_d_251_7)">
<rect x="9" y="5" width="40" height="40" rx="8" fill="#616BE8"/>
</g>
<path fill-rule="evenodd" clip-rule="evenodd" d="M25.6667 16C26.0493 16 26.389 16.2134 26.5099 16.5298L32.3333 31.7575L34.8234 25.2462C34.9444 24.9298 35.2841 24.7164 35.6667 24.7164H40.1111C40.602 24.7164 41 25.0633 41 25.4912C41 25.9191 40.602 26.266 40.1111 26.266H36.3073L33.1766 34.4526C33.0556 34.7689 32.7159 34.9823 32.3333 34.9823C31.9507 34.9823 31.611 34.7689 31.4901 34.4526L25.6667 19.2249L23.1766 25.7362C23.0556 26.0526 22.7159 26.266 22.3333 26.266H17.8889C17.398 26.266 17 25.9191 17 25.4912C17 25.0633 17.398 24.7164 17.8889 24.7164H21.6927L24.8234 16.5298C24.9444 16.2134 25.2841 16 25.6667 16Z" fill="white"/>
<defs>
<filter id="filter0_d_251_7" x="0" y="0" width="58" height="58" filterUnits="userSpaceOnUse" color-interpolation-filters="sRGB">
<feFlood flood-opacity="0" result="BackgroundImageFix"/>
<feColorMatrix in="SourceAlpha" type="matrix" values="0 0 0 0 0 0 0 0 0 0 0 0 0 0 0 0 0 0 127 0" result="hardAlpha"/>
<feOffset dy="4"/>
<feGaussianBlur stdDeviation="4.5"/>
<feComposite in2="hardAlpha" operator="out"/>
<feColorMatrix type="matrix" values="0 0 0 0 0 0 0 0 0 0 0 0 0 0 0 0 0 0 0.05 0"/>
<feBlend mode="normal" in2="BackgroundImageFix" result="effect1_dropShadow_251_7"/>
<feBlend mode="normal" in="SourceGraphic" in2="effect1_dropShadow_251_7" result="shape"/>
</filter>
</defs>
</svg>
