<svg width="58" height="58" viewBox="0 0 58 58" fill="none" xmlns="http://www.w3.org/2000/svg">
<g filter="url(#filter0_d_251_5)">
<rect x="9" y="5" width="40" height="40" rx="8" fill="#616BE8"/>
</g>
<path fill-rule="evenodd" clip-rule="evenodd" d="M29 34.1111C33.2401 34.1111 36.6774 30.7284 36.6774 26.5556C36.6774 22.3827 33.2401 19 29 19C24.7599 19 21.3226 22.3827 21.3226 26.5556C21.3226 30.7284 24.7599 34.1111 29 34.1111ZM29 35C33.739 35 37.5806 31.2193 37.5806 26.5556C37.5806 21.8918 33.739 18.1111 29 18.1111C24.261 18.1111 20.4194 21.8918 20.4194 26.5556C20.4194 31.2193 24.261 35 29 35Z" fill="white"/>
<path fill-rule="evenodd" clip-rule="evenodd" d="M29.2901 30.6662C30.0892 30.9377 30.9 30.532 31.1423 29.8414C31.3847 29.1508 31.001 28.3391 30.202 28.0675C29.4029 27.796 28.5921 28.2017 28.3497 28.8923C28.1074 29.5829 28.4911 30.3946 29.2901 30.6662ZM28.9953 31.5064C30.238 31.9287 31.5815 31.3131 31.9961 30.1315C32.4107 28.9499 31.7395 27.6497 30.4968 27.2273C29.2541 26.805 27.9106 27.4206 27.496 28.6022C27.0814 29.7838 27.7526 31.0841 28.9953 31.5064Z" fill="white"/>
<path fill-rule="evenodd" clip-rule="evenodd" d="M41.1935 24.3333H40.2903C39.7915 24.3333 39.3871 24.7313 39.3871 25.2222V27.8889C39.3871 28.3798 39.7915 28.7778 40.2903 28.7778H41.1935C41.6924 28.7778 42.0968 28.3798 42.0968 27.8889V25.2222C42.0968 24.7313 41.6924 24.3333 41.1935 24.3333ZM40.2903 23.4444C39.2926 23.4444 38.4839 24.2404 38.4839 25.2222V27.8889C38.4839 28.8707 39.2926 29.6667 40.2903 29.6667H41.1935C42.1912 29.6667 43 28.8707 43 27.8889V25.2222C43 24.2404 42.1912 23.4444 41.1935 23.4444H40.2903Z" fill="white"/>
<path fill-rule="evenodd" clip-rule="evenodd" d="M17.7097 24.3333H16.8065C16.3076 24.3333 15.9032 24.7313 15.9032 25.2222V27.8889C15.9032 28.3798 16.3076 28.7778 16.8065 28.7778H17.7097C18.2085 28.7778 18.6129 28.3798 18.6129 27.8889V25.2222C18.6129 24.7313 18.2085 24.3333 17.7097 24.3333ZM16.8065 23.4444C15.8088 23.4444 15 24.2404 15 25.2222V27.8889C15 28.8707 15.8088 29.6667 16.8065 29.6667H17.7097C18.7074 29.6667 19.5161 28.8707 19.5161 27.8889V25.2222C19.5161 24.2404 18.7074 23.4444 17.7097 23.4444H16.8065Z" fill="white"/>
<path fill-rule="evenodd" clip-rule="evenodd" d="M18.603 23.9808C18.603 23.9808 18.6031 23.9804 18.1612 23.8889C17.7193 23.7973 17.7194 23.7968 17.7194 23.7968L17.72 23.7941L17.7214 23.7877L17.7263 23.7661C17.7305 23.7477 17.7368 23.7215 17.7451 23.688C17.7618 23.6211 17.7871 23.525 17.8222 23.4039C17.8925 23.1619 18.0026 22.8192 18.1633 22.4094C18.4842 21.591 19.0099 20.4982 19.8299 19.403C21.4783 17.2014 24.3133 15 28.9999 15C33.6865 15 36.5215 17.2014 38.1699 19.403C38.9899 20.4982 39.5156 21.591 39.8365 22.4094C39.9973 22.8192 40.1073 23.1619 40.1776 23.4039C40.2127 23.525 40.238 23.6211 40.2547 23.688C40.263 23.7215 40.2693 23.7477 40.2735 23.7661L40.2784 23.7877L40.2798 23.7941L40.2803 23.7961C40.2803 23.7961 40.2805 23.7973 39.8386 23.8889C39.3967 23.9804 39.3968 23.9808 39.3968 23.9808L39.3961 23.9778L39.3928 23.9633C39.3897 23.9497 39.3846 23.9285 39.3775 23.9001C39.3634 23.8433 39.341 23.7579 39.3091 23.6481C39.2453 23.4284 39.1437 23.1114 38.9939 22.7295C38.6939 21.9645 38.2035 20.9463 37.4428 19.9303C35.9299 17.9097 33.3456 15.8889 28.9999 15.8889C24.6542 15.8889 22.0699 17.9097 20.557 19.9303C19.7964 20.9463 19.3059 21.9645 19.0059 22.7295C18.8561 23.1114 18.7545 23.4284 18.6907 23.6481C18.6588 23.7579 18.6364 23.8433 18.6223 23.9001C18.6152 23.9285 18.6102 23.9497 18.607 23.9633L18.6037 23.9778L18.603 23.9808Z" fill="white"/>
<path fill-rule="evenodd" clip-rule="evenodd" d="M39.4752 30.3528C38.8505 30.7584 38.0072 31.2388 37.2404 31.4308C36.0801 31.7213 34.6271 31.4699 33.5233 31.1803C32.9598 31.0324 32.4641 30.8681 32.1094 30.7408C31.9318 30.6771 31.7889 30.6224 31.6897 30.5834C31.6401 30.5639 31.6014 30.5483 31.5747 30.5374L31.5438 30.5247L31.5354 30.5212L31.5319 30.5197C31.5319 30.5197 31.5318 30.5197 31.7097 30.1112C31.8877 29.7027 31.8876 29.7027 31.8876 29.7027L31.889 29.7032L31.895 29.7057L31.9208 29.7164C31.9441 29.7259 31.9792 29.74 32.0249 29.758C32.1165 29.7941 32.2508 29.8454 32.4188 29.9057C32.7553 30.0265 33.2247 30.182 33.756 30.3214C34.8421 30.6064 36.0988 30.7994 37.0178 30.5693C37.6291 30.4163 38.3664 30.0078 38.9778 29.6108C39.2773 29.4164 39.5355 29.232 39.7187 29.0964C39.8102 29.0287 39.8826 28.9733 39.9318 28.9353C39.9563 28.9162 39.9751 28.9016 39.9874 28.8918L40.0011 28.881L40.0042 28.8785L40.2904 29.2223C40.576 29.5666 40.5759 29.5667 40.5759 29.5667L40.574 29.5682L40.5694 29.5719L40.5526 29.5851C40.5382 29.5965 40.5173 29.613 40.4904 29.6338C40.4366 29.6754 40.359 29.7347 40.2617 29.8067C40.0675 29.9505 39.7938 30.1459 39.4752 30.3528Z" fill="white"/>
<defs>
<filter id="filter0_d_251_5" x="0" y="0" width="58" height="58" filterUnits="userSpaceOnUse" color-interpolation-filters="sRGB">
<feFlood flood-opacity="0" result="BackgroundImageFix"/>
<feColorMatrix in="SourceAlpha" type="matrix" values="0 0 0 0 0 0 0 0 0 0 0 0 0 0 0 0 0 0 127 0" result="hardAlpha"/>
<feOffset dy="4"/>
<feGaussianBlur stdDeviation="4.5"/>
<feComposite in2="hardAlpha" operator="out"/>
<feColorMatrix type="matrix" values="0 0 0 0 0 0 0 0 0 0 0 0 0 0 0 0 0 0 0.05 0"/>
<feBlend mode="normal" in2="BackgroundImageFix" result="effect1_dropShadow_251_5"/>
<feBlend mode="normal" in="SourceGraphic" in2="effect1_dropShadow_251_5" result="shape"/>
</filter>
</defs>
</svg>
